<?xml version="1.0" encoding="utf-8"?>
<!-- Svg Vector Icons : http://www.onlinewebfonts.com/icon -->
<!DOCTYPE svg PUBLIC "-//W3C//DTD SVG 1.1//EN" "http://www.w3.org/Graphics/SVG/1.1/DTD/svg11.dtd">
<svg version="1.1" xmlns="http://www.w3.org/2000/svg" xmlns:xlink="http://www.w3.org/1999/xlink" x="0px" y="0px" viewBox="0 0 256 256" enable-background="new 0 0 256 256" xml:space="preserve">
<metadata> Svg Vector Icons : http://www.onlinewebfonts.com/icon </metadata>
<g><g><g><path fill="#000000" d="M47.7,50.6C33.1,52.5,19.4,57,12,62.6l-2,1.5v61.3c0,58.6,0.1,61.4,1.1,62.3c0.6,0.6,1.5,1,1.8,1c0.4,0,3-1.3,5.9-3c5.7-3.3,13.9-6.1,22.5-7.8c7.8-1.6,30.6-1.5,38.3,0c10.1,2.1,20.7,6.1,25.2,9.6c2.1,1.6,2.7,1.5,7.2-1.3c11.7-7.1,26.8-10.2,46.6-9.6c12.5,0.4,19.2,1.5,28.8,5c5.4,1.9,6,2,7.3,1.2c2.2-1.5,1.9-4.3-0.5-5.8c-5.1-3.2-18.9-6.3-31.5-7.4c-16.9-1.3-37.2,1.9-48.8,7.7L111,179v-37c0-35.1-0.1-37.1-1.1-38c-1.3-1.2-3.8-1.3-4.9-0.3c-0.5,0.5-0.7,9.8-0.7,38v37.2l-4-1.8c-8.8-4-19.3-6.3-31.9-7.4c-16.8-1.3-37.2,1.9-48.8,7.7l-2.9,1.5v-55.7V67.7l2.4-1.5c10.5-6.6,31.7-10.4,49.6-8.9c13,1.1,25.4,4.4,32.8,8.8l2.8,1.6v10.5c0,9.4,0.1,10.6,1.1,11.5c1.5,1.3,2.9,1.3,4.4-0.2c1.1-1.1,1.2-2,1.2-11.5V67.7l1.8-1.3c6.4-4.6,21.6-8.5,36.8-9.4c15.3-1,35.9,3,46.2,9.1l2.8,1.6v35.5c0,19.6-0.2,35.6-0.5,35.6c-0.2,0-6.2-5.8-13.2-12.8l-12.8-12.8l-13.7-6.7l-13.7-6.7l-7,1.3c-8.2,1.6-16.3,4-17.8,5.4c-3.3,2.9,1,7.1,4.9,5c1.4-0.7,10.1-3,14-3.6l3-0.5l5.3,11.3l5.4,11.3l37.7,37.8c23.8,23.9,38.2,37.9,38.9,37.9c0.7,0,4.4-3.2,9-7.7c5.9-5.9,7.8-8.1,7.8-9.3s-4.3-5.8-20.4-21.9l-20.4-20.4v-40.9V64.6l-1.6-1.5c-2.4-2.2-13-7.2-19-8.9c-10-2.9-16.5-3.7-29.5-3.7c-7.1,0-14.2,0.3-17,0.7c-10.5,1.7-21.9,5.4-28,8.9l-2.5,1.5l-4.5-2.4c-10.8-5.6-23.7-8.5-40.1-8.8C57.1,50.2,50.2,50.3,47.7,50.6z M159.8,114.7l8,3.9l35,35l34.9,35l-1.5,1.6l-1.5,1.6l-32.1-32.1c-31.8-31.7-34-33.8-34-30.2c0,0.6,13.6,14.7,31.8,32.8l31.8,31.8l-1.6,1.6l-1.6,1.6l-35-35l-35-34.9l-4-8.4c-2.2-4.6-3.8-8.3-3.6-8.3C151.7,110.8,155.4,112.6,159.8,114.7z"/><path fill="#000000" d="M45,78.9c-6.2,1-15.4,3.5-18.6,5c-2.6,1.3-3.2,4.1-1.2,5.9c1.2,1.1,1.3,1.1,7.2-0.9c8.4-2.7,13.8-3.6,23.5-4.1c12.3-0.6,20.2,0.5,34.9,4.7c1.9,0.5,2.9,0.5,3.6,0.1c1.4-0.9,1.6-4.1,0.4-5.4c-1.1-1.1-8.9-3.6-15.6-5C72.8,78.1,52.1,77.8,45,78.9z"/><path fill="#000000" d="M142.9,78.4c-10.4,1.6-21,4.4-22.9,6.2c-1.4,1.2-1.4,3.3,0,4.6c1.5,1.3,2.3,1.3,7.7-0.5c9-2.9,14.3-3.6,27.1-3.6c13,0,19.6,1,28.6,4.3c5,1.8,6.9,1.5,7.6-1.3c0.5-2.2-1-3.6-6.3-5.5c-8.9-3.1-14.8-4-27.8-4.2C150.2,78.2,143.9,78.2,142.9,78.4z"/><path fill="#000000" d="M45,100.8c-6.2,1-15.4,3.5-18.6,5c-2.6,1.3-3.2,4.1-1.2,5.9c1.2,1.1,1.3,1.1,7.2-0.8c8-2.6,14.8-3.8,23.8-4.2c11.7-0.5,20.3,0.7,34.5,4.8c1.9,0.5,2.9,0.5,3.6,0.1c1.2-0.7,1.6-3.8,0.9-5c-0.7-1.1-8-3.5-15.1-5C72.2,100,53.1,99.5,45,100.8z"/><path fill="#000000" d="M45.3,122.7c-6.3,1-15.1,3.3-18.7,5c-2.9,1.3-3.5,4.1-1.4,6c1.3,1.2,1.3,1.1,7.2-0.8c8-2.6,14.8-3.8,23.8-4.2c11.7-0.5,20.3,0.7,34.5,4.8c1.9,0.5,2.9,0.5,3.6,0.1c1.2-0.7,1.6-3.8,0.9-5c-0.7-1-8-3.5-15.2-5C72.3,121.9,53.7,121.4,45.3,122.7z"/><path fill="#000000" d="M49.5,144c-0.9,0.1-4.1,0.7-7.3,1.2c-6,1-16.1,4-17.5,5.2c-1.8,1.5-0.4,6,1.9,6c0.4,0,2.8-0.7,5.3-1.5c9.3-3.2,15.8-4.1,27.9-4.2c12.2,0,18.6,0.8,27.1,3.6c6.8,2.3,8.8,1.9,8.8-1.5c0-2.4-0.7-2.9-5.5-4.6c-8.9-3-15.2-4-27.6-4.3C56.3,143.9,50.4,143.9,49.5,144z"/><path fill="#000000" d="M45,182.9c-8.4,1.3-15.8,3.7-22.5,7c-7.1,3.5-9.4,5.4-9.4,7.8c0,3.6,2.9,4.1,7.1,1.3c20.6-14.2,60.6-13.4,83.3,1.6c1.7,1.2,3.5,2.1,4,2.1c0.5,0,2.6-1.1,4.6-2.4c7.5-5,21.2-9.6,33.1-11c16.5-2,38,1.9,48.4,8.9c4.3,2.9,6.1,3.3,7.7,1.5c2.4-2.7-0.6-6-9.7-10.3c-17.6-8.5-44.2-9.7-65.1-3c-6.7,2.1-14,5.3-16.8,7.3l-1.9,1.3l-5.2-2.8c-7-3.6-13.6-6-22.4-8.1c-6.2-1.4-8.8-1.6-18.5-1.8C54,182.1,48.7,182.3,45,182.9z"/></g></g></g>
</svg>